<?xml version="1.0" encoding="UTF-8"?>
<svg width="512" height="512" viewBox="0 0 512 512" fill="none" xmlns="http://www.w3.org/2000/svg">
  <path d="M466.5 83.7L256 12.3L45.5 83.7C38.5 85.9 34 92.6 34 100V224.9C34 312.1 77.2 393.6 150.5 437.6L256 500L361.5 437.6C434.8 393.6 478 312.1 478 224.9V100C478 92.6 473.5 85.9 466.5 83.7Z" fill="#0D6EFD"/>
  <path d="M256 440C240.7 440 226.5 434.5 215.3 423.3C204.1 412.1 198.6 397.9 198.6 382.6V242.8C198.6 227.5 204.1 213.3 215.3 202.1C226.5 190.9 240.7 185.4 256 185.4C271.3 185.4 285.5 190.9 296.7 202.1C307.9 213.3 313.4 227.5 313.4 242.8V382.6C313.4 397.9 307.9 412.1 296.7 423.3C285.5 434.5 271.3 440 256 440Z" fill="#FFFFFF"/>
  <path d="M256 144C241.6 144 230 132.4 230 118C230 103.6 241.6 92 256 92C270.4 92 282 103.6 282 118C282 132.4 270.4 144 256 144Z" fill="#FFFFFF"/>
  <path d="M256 262.9C248.3 262.9 242 256.6 242 248.9V242.8C242 235.1 248.3 228.8 256 228.8C263.7 228.8 270 235.1 270 242.8V248.9C270 256.6 263.7 262.9 256 262.9Z" fill="#0D6EFD"/>
</svg>